<svg version="1.1" id="Layer_1" xmlns="http://www.w3.org/2000/svg" xmlns:xlink="http://www.w3.org/1999/xlink" x="0px" y="0px"
	 width="100%" viewBox="0 0 2000 2000" enable-background="new 0 0 2000 2000" xml:space="preserve">
<path fill="#171616" opacity="1.000000" stroke="none" 
	d="
M1807.000000,2001.000000 
	C1204.666626,2001.000000 602.833313,2001.000000 1.000000,2001.000000 
	C1.000000,1334.333374 1.000000,667.666687 1.000000,1.000000 
	C667.666687,1.000000 1334.333374,1.000000 2001.000000,1.000000 
	C2001.000000,667.666687 2001.000000,1334.333374 2001.000000,2001.000000 
	C1936.500000,2001.000000 1872.000000,2001.000000 1807.000000,2001.000000 
M357.748077,1155.107422 
	C371.511200,1150.616211 385.274323,1146.125000 399.778687,1141.391846 
	C391.250671,1131.905273 383.571960,1123.363403 375.160706,1114.006592 
	C368.807190,1128.389648 362.926086,1141.703125 356.909943,1155.042603 
	C356.909943,1155.042603 356.937256,1155.192017 356.937256,1155.192017 
	C356.937256,1155.192017 356.956390,1154.938599 357.748077,1155.107422 
M313.438080,933.936401 
	C313.622284,945.411926 313.104767,956.949524 314.113647,968.352112 
	C318.223511,1014.803955 347.958679,1048.781006 393.199341,1060.052124 
	C429.256561,1069.035522 465.440369,1069.393799 501.624939,1061.786255 
	C524.763489,1056.921509 546.980957,1049.374634 564.515381,1032.315063 
	C568.738831,1028.205933 572.494934,1023.616638 576.722046,1018.966370 
	C577.105469,1021.154785 577.460815,1022.908386 577.714966,1024.676514 
	C580.286499,1042.567993 590.355591,1054.157471 607.202698,1060.324585 
	C617.701904,1064.167969 628.556946,1065.168823 639.589539,1065.440796 
	C673.654053,1066.280640 696.741882,1051.682495 710.463379,1020.538879 
	C711.031982,1019.248291 711.632080,1017.971558 712.689514,1015.654114 
	C713.122803,1021.558044 713.305237,1026.303101 713.844543,1031.007202 
	C716.392273,1053.229980 727.844238,1064.351196 750.164368,1064.921143 
	C764.783508,1065.294434 779.436829,1064.037720 794.078613,1063.890503 
	C814.409180,1063.686279 834.743347,1063.838379 855.075928,1063.837891 
	C856.847839,1063.837769 858.619751,1063.837769 860.714355,1063.837769 
	C860.714355,1062.204102 860.721741,1061.234131 860.713257,1060.264282 
	C860.494202,1035.107544 860.123474,1009.950745 860.129517,984.794067 
	C860.131836,975.195312 862.245544,965.944092 867.858032,957.850159 
	C873.315979,949.979126 880.650146,945.828430 890.437744,947.035522 
	C899.635803,948.169800 905.729126,953.695496 908.771057,961.990173 
	C910.675720,967.183899 911.816772,972.989014 911.774841,978.508179 
	C911.589905,1002.834229 910.839111,1027.155762 910.324097,1051.479614 
	C910.240540,1055.427490 910.312378,1059.378418 910.312378,1063.546143 
	C934.085205,1063.546143 957.650085,1063.546143 981.450134,1063.546143 
	C981.518066,1062.475830 981.626465,1061.679443 981.610535,1060.885498 
	C981.104675,1035.730347 980.281494,1010.575562 980.260742,985.420105 
	C980.254700,978.076904 981.432739,970.325317 983.973389,963.466736 
	C990.581116,945.629333 1012.265869,941.145325 1024.975586,954.516846 
	C1031.354004,961.227356 1032.937744,969.768860 1032.789795,978.612610 
	C1032.450073,998.939270 1031.913086,1019.263123 1031.359253,1039.585449 
	C1031.143188,1047.512573 1030.666748,1055.432617 1030.279907,1063.997803 
	C1054.175659,1063.997803 1077.554932,1063.997803 1100.521729,1063.997803 
	C1100.521729,1088.880127 1100.521729,1113.127686 1100.521729,1137.429688 
	C1124.214966,1137.429688 1147.924927,1137.429688 1172.040161,1137.429688 
	C1171.049316,1100.400146 1170.069580,1063.785400 1169.089844,1027.170776 
	C1183.458496,1056.453735 1207.974243,1067.358276 1238.431030,1066.848633 
	C1270.560303,1066.310913 1289.529541,1046.496338 1303.236694,1018.588562 
	C1310.276245,1047.499512 1327.804932,1063.834473 1355.917847,1066.417603 
	C1390.869263,1069.629395 1412.096680,1051.492798 1423.296387,1019.294800 
	C1426.236694,1034.067871 1429.177124,1048.840942 1432.072754,1063.390015 
	C1453.696533,1063.390015 1474.792236,1063.390015 1496.101685,1063.390015 
	C1496.101685,1056.754883 1496.101685,1050.204834 1496.101685,1043.227417 
	C1497.422974,1043.842285 1498.460083,1044.287231 1499.463989,1044.797729 
	C1521.351562,1055.926514 1544.514526,1062.814209 1568.903442,1065.524048 
	C1596.008179,1068.535522 1622.807861,1067.309570 1648.934937,1058.840942 
	C1679.859375,1048.817383 1694.307617,1027.872070 1692.038208,996.499329 
	C1691.296997,986.252808 1687.102051,977.640930 1678.990234,971.036560 
	C1669.495361,963.306213 1658.339966,959.762939 1646.512817,957.976318 
	C1625.557251,954.811096 1604.625610,956.927124 1583.682373,958.377319 
	C1578.745239,958.719238 1573.567139,958.898926 1568.842285,957.747681 
	C1565.989502,957.052612 1562.379150,954.010925 1561.704956,951.362854 
	C1561.028442,948.705322 1562.732056,944.295044 1564.907471,942.329529 
	C1568.094360,939.450317 1572.426392,937.265259 1576.630005,936.191589 
	C1589.360107,932.940063 1602.297363,934.178833 1614.675903,937.652466 
	C1626.781860,941.049622 1638.399292,946.173035 1650.286011,950.383911 
	C1651.854492,950.939514 1654.483887,951.365295 1655.378540,950.525940 
	C1667.366821,939.278381 1679.133667,927.794922 1691.347046,915.991882 
	C1679.494873,907.241333 1667.899536,901.571167 1655.658203,897.146362 
	C1625.544312,886.261169 1594.493408,884.637024 1563.023560,888.289978 
	C1545.060913,890.374939 1527.364136,894.015503 1512.303101,904.812561 
	C1506.069336,909.281494 1500.837891,915.148254 1495.810181,919.772522 
	C1495.810181,910.580750 1495.810181,900.382324 1495.810181,890.224609 
	C1470.777100,890.224609 1445.719238,890.224609 1420.650146,890.224609 
	C1420.528076,891.088928 1420.398560,891.569336 1420.401611,892.048889 
	C1420.585571,920.538391 1421.178467,949.034546 1420.701904,977.512756 
	C1420.578613,984.868164 1418.040039,992.595032 1414.942749,999.390869 
	C1410.452026,1009.243713 1400.709961,1014.019409 1391.363770,1012.762451 
	C1382.025269,1011.506592 1374.265869,1004.287537 1371.849487,993.808716 
	C1370.738281,988.990234 1370.198730,983.914673 1370.272949,978.968811 
	C1370.688599,951.308594 1371.373413,923.652344 1371.956543,895.994568 
	C1371.997437,894.057129 1371.962036,892.118103 1371.962036,890.218872 
	C1347.853027,890.218872 1324.301147,890.218872 1301.153687,890.218872 
	C1301.153687,896.752747 1301.153687,902.893982 1301.153687,909.035278 
	C1301.153687,915.018005 1301.153687,921.000732 1301.153687,927.440552 
	C1286.655640,901.282837 1266.030029,885.675903 1235.209106,886.829651 
	C1205.679321,887.934998 1182.736206,899.561157 1170.230835,929.287659 
	C1166.892334,915.154114 1163.922974,902.583496 1160.989136,890.163086 
	C1140.387329,890.163086 1120.306274,890.163086 1100.337280,890.163086 
	C1100.337280,903.192505 1100.337280,915.888184 1100.337280,929.530945 
	C1089.955933,899.733887 1069.693970,884.958008 1038.694336,886.852966 
	C1008.238831,888.714661 990.173889,907.026550 979.197510,934.329956 
	C965.463379,899.428284 948.379883,885.957581 918.729553,886.582642 
	C886.556946,887.260803 868.253906,905.627319 858.554626,936.263428 
	C855.140869,919.677063 852.096741,904.886597 849.089966,890.277832 
	C827.358521,890.277832 806.132996,890.277832 784.588928,890.277832 
	C786.832947,933.717651 787.910217,976.811707 785.494019,1019.929688 
	C784.622925,1015.646851 784.720093,1011.349670 784.605957,1007.057983 
	C784.127869,989.083557 784.756775,970.982544 782.803467,953.166443 
	C779.590637,923.861450 763.997681,903.213806 735.515564,893.388184 
	C720.874084,888.337158 705.689941,886.744812 690.279419,886.551575 
	C659.744629,886.168640 631.333252,892.661011 607.440979,912.818420 
	C599.287720,919.697327 592.048950,927.660156 584.399597,935.120667 
	C601.084961,945.479492 616.662170,955.150330 632.478577,964.969727 
	C621.960266,968.370911 612.342590,971.005310 603.098633,974.600708 
	C593.398560,978.373352 585.911072,985.171326 580.786194,994.849731 
	C570.469971,990.156128 560.456482,985.729858 550.557861,981.060303 
	C540.665527,976.393738 530.888123,971.483521 520.853455,966.579041 
	C520.233948,967.647644 519.654175,968.439392 519.282898,969.319092 
	C512.348328,985.748718 499.813568,995.497009 482.766846,999.701843 
	C469.875488,1002.881775 456.844635,1003.261902 443.587860,1002.147217 
	C411.371246,999.438538 391.163330,978.948059 390.387787,946.583191 
	C389.903381,926.368164 397.126099,909.379822 414.586731,897.915527 
	C423.147095,892.295044 432.955475,890.215576 443.034637,889.634094 
	C466.361206,888.288269 488.216797,892.861389 506.856689,907.647156 
	C512.440247,912.076233 516.578857,918.326965 521.150818,923.485107 
	C543.120605,913.740723 565.276123,903.913940 587.598206,894.013306 
	C587.384766,893.568909 586.993042,892.684265 586.544312,891.829407 
	C571.155579,862.512085 547.137390,843.491882 515.699463,834.220032 
	C474.103424,821.952271 432.147461,822.244751 390.513641,833.995544 
	C368.163513,840.303711 349.577179,852.802063 335.616089,871.839050 
	C322.207520,890.122742 315.712097,910.752197 313.438080,933.936401 
M1678.504272,1097.917236 
	C1674.022949,1097.928223 1669.495117,1097.524170 1665.067871,1098.018799 
	C1639.946533,1100.825684 1624.124390,1126.917358 1633.327271,1150.106567 
	C1639.550415,1165.787598 1657.202759,1176.220093 1675.239380,1174.876953 
	C1701.128418,1172.948975 1719.131592,1148.956177 1711.767700,1125.585205 
	C1706.813354,1109.861328 1695.515259,1100.902344 1678.504272,1097.917236 
M1523.042969,1122.537354 
	C1526.079468,1125.237915 1526.243286,1131.188843 1532.597534,1130.943848 
	C1532.597534,1123.167358 1532.694336,1115.715210 1532.474854,1108.272217 
	C1532.447388,1107.340088 1530.748779,1106.457397 1529.824463,1105.551758 
	C1529.297241,1105.876587 1528.770142,1106.201416 1528.242920,1106.526123 
	C1528.242920,1111.793091 1528.242920,1117.059937 1528.242920,1122.428955 
	C1521.698120,1117.708374 1520.910156,1108.392212 1512.108032,1105.311646 
	C1512.108032,1113.638550 1511.995728,1120.943481 1512.229736,1128.237183 
	C1512.264648,1129.325439 1513.927246,1130.361450 1514.836792,1131.421631 
	C1515.287476,1131.100342 1515.738159,1130.779053 1516.188843,1130.457764 
	C1516.188843,1125.074341 1516.188843,1119.691040 1516.188843,1114.147705 
	C1516.914185,1114.410645 1517.306152,1114.426636 1517.448730,1114.623535 
	C1519.202759,1117.044067 1520.920288,1119.491089 1523.042969,1122.537354 
M1563.617432,1158.785156 
	C1567.515259,1162.586914 1572.004272,1163.400635 1575.635254,1160.963501 
	C1578.968628,1158.726318 1580.638428,1153.890869 1578.585938,1150.405518 
	C1577.446411,1148.470337 1575.204590,1146.543945 1573.098755,1145.992554 
	C1570.855225,1145.405029 1568.185547,1146.445068 1565.680054,1146.777344 
	C1566.897461,1139.490967 1569.414551,1138.512329 1575.274292,1142.785889 
	C1576.115845,1143.399780 1577.500000,1143.269775 1579.203491,1143.591919 
	C1577.940063,1138.912231 1575.463013,1136.934814 1571.556519,1136.675537 
	C1567.601074,1136.412842 1564.680664,1138.225586 1563.194824,1141.745728 
	C1560.915894,1147.145264 1560.638916,1152.694214 1563.617432,1158.785156 
M456.239014,1159.414917 
	C457.781281,1160.453613 459.323578,1161.492310 460.865845,1162.531128 
	C461.143738,1162.126831 461.421631,1161.722534 461.699524,1161.318237 
	C460.914368,1159.861572 460.112305,1158.413574 459.348724,1156.945679 
	C458.527557,1155.367188 457.742462,1153.769897 456.990540,1152.277710 
	C460.997620,1148.280273 462.057343,1144.994507 460.482574,1141.496704 
	C458.693909,1137.523682 455.230957,1136.799683 451.336273,1136.914429 
	C448.872375,1136.987061 446.404572,1136.927979 443.382874,1136.927979 
	C443.382874,1144.778809 443.284393,1152.230103 443.505280,1159.671997 
	C443.533447,1160.621094 445.228149,1161.520752 446.150787,1162.443237 
	C446.580322,1162.128784 447.009888,1161.814209 447.439453,1161.499634 
	C447.439453,1158.735718 447.439453,1155.971680 447.439453,1153.330444 
	C453.336884,1150.925293 454.021210,1155.713013 456.239014,1159.414917 
M438.948578,1130.932373 
	C437.720551,1127.621582 436.492493,1124.310913 435.259766,1120.987549 
	C439.016876,1117.265259 440.067932,1113.973267 438.467010,1110.461060 
	C436.658783,1106.494019 433.183655,1105.799683 429.295288,1105.914307 
	C426.837097,1105.986816 424.375000,1105.927856 421.383575,1105.927856 
	C421.383575,1113.818237 421.285004,1121.273071 421.508362,1128.718384 
	C421.536285,1129.648804 423.266815,1130.528076 425.049744,1132.237793 
	C425.250061,1127.693359 425.371887,1124.929688 425.493774,1122.164429 
	C429.027802,1121.052002 430.981720,1122.016479 432.634094,1125.068604 
	C433.895782,1127.398926 433.902191,1131.382812 438.948578,1130.932373 
M579.812744,1140.419800 
	C579.046204,1141.882324 578.041565,1143.269775 577.552979,1144.819946 
	C574.989258,1152.954590 579.094788,1161.078003 586.193604,1162.144653 
	C591.802307,1162.987305 596.239258,1160.628174 598.378906,1155.665527 
	C600.912720,1149.788940 599.341553,1142.104614 594.920898,1138.751709 
	C590.668823,1135.526733 585.418701,1135.919800 579.812744,1140.419800 
M474.934235,1162.236694 
	C483.358307,1162.040649 487.798340,1157.426025 487.583496,1149.090088 
	C487.388489,1141.524048 482.872223,1136.592896 476.157715,1136.614258 
	C470.349335,1136.632812 465.909424,1140.684448 465.066772,1146.735474 
	C463.948395,1154.766479 467.043732,1159.999390 474.934235,1162.236694 
M621.326904,1146.861084 
	C622.860107,1138.030396 616.302734,1135.221069 604.291138,1137.652954 
	C604.291138,1145.751953 604.291138,1153.821167 604.291138,1162.206665 
	C611.216003,1161.220337 605.858643,1155.281006 608.455383,1153.058228 
	C613.513855,1151.119873 614.430847,1155.136475 616.064697,1158.107788 
	C617.347717,1160.440918 618.241455,1163.484985 622.142761,1161.258301 
	C620.559326,1158.245117 619.030212,1155.335205 617.598389,1152.610474 
	C618.878296,1150.792480 619.999329,1149.199951 621.326904,1146.861084 
M512.512573,1160.964478 
	C517.723938,1161.447144 522.935303,1161.929688 528.146667,1162.412231 
	C528.239014,1161.790039 528.331360,1161.167847 528.423767,1160.545654 
	C525.510803,1156.373413 520.212524,1160.503906 516.636719,1157.940796 
	C516.636719,1155.847534 516.636719,1153.650391 516.636719,1150.988525 
	C520.395874,1150.988525 523.809814,1150.988525 528.152100,1150.988525 
	C525.079834,1145.225098 519.725586,1149.764404 516.731934,1147.049072 
	C516.731934,1144.877563 516.731934,1142.682007 516.731934,1140.536255 
	C527.543091,1139.508179 527.543091,1139.508179 527.773987,1137.311035 
	C522.747375,1137.311035 517.726929,1137.311035 512.398743,1137.311035 
	C512.398743,1145.142944 512.398743,1152.592773 512.512573,1160.964478 
M1575.028320,1105.925781 
	C1571.274536,1105.925781 1567.520752,1105.925781 1563.700195,1105.925781 
	C1563.700195,1114.640259 1563.700195,1122.695312 1563.700195,1130.701782 
	C1569.092163,1130.701782 1574.146362,1130.701782 1580.211548,1130.701782 
	C1576.531128,1125.386475 1571.250854,1129.449707 1567.620239,1126.954712 
	C1567.620239,1124.877441 1567.620239,1122.676514 1567.620239,1120.010986 
	C1571.367798,1120.010986 1574.787231,1120.010986 1579.116211,1120.010986 
	C1576.099243,1114.190674 1570.742554,1118.743896 1567.720825,1116.056885 
	C1567.720825,1113.894897 1567.720825,1111.693848 1567.720825,1109.195068 
	C1570.797729,1109.195068 1573.456787,1109.337646 1576.086914,1109.124512 
	C1577.131226,1109.039795 1578.111450,1108.165771 1579.120850,1107.651123 
	C1578.043945,1107.076050 1576.967163,1106.500977 1575.028320,1105.925781 
M1485.726440,1106.098022 
	C1482.506348,1107.343750 1479.616333,1109.683594 1480.651245,1113.040527 
	C1481.417236,1115.525391 1484.421997,1117.472168 1486.733398,1119.267212 
	C1487.961426,1120.220825 1490.008179,1120.067383 1491.369019,1120.918945 
	C1492.605103,1121.692505 1494.440063,1123.498779 1494.191040,1124.232544 
	C1493.703857,1125.668701 1492.007202,1127.569580 1490.705444,1127.654175 
	C1488.636719,1127.788574 1486.431519,1126.719727 1484.380493,1125.914062 
	C1483.035889,1125.386108 1481.861206,1124.424683 1479.667114,1123.078735 
	C1481.522827,1130.486328 1487.079956,1133.349487 1493.230103,1130.648438 
	C1495.395630,1129.697510 1497.854858,1126.783203 1498.001343,1124.617798 
	C1498.144409,1122.506226 1495.912598,1119.695679 1493.966309,1118.137695 
	C1492.151001,1116.684448 1489.227783,1116.704346 1487.014526,1115.621704 
	C1485.875854,1115.064697 1484.332642,1113.277100 1484.550415,1112.472778 
	C1484.903687,1111.167358 1486.500610,1109.375122 1487.669678,1109.299805 
	C1489.610352,1109.174805 1491.671997,1110.131958 1493.598145,1110.857910 
	C1494.889282,1111.344482 1496.034058,1112.219238 1497.894897,1113.297119 
	C1496.559692,1106.661377 1494.015015,1105.247681 1485.726440,1106.098022 
M558.465332,1161.228638 
	C561.063538,1161.545898 563.687622,1162.255371 566.253723,1162.086060 
	C569.875610,1161.846802 572.547852,1159.879028 573.041687,1155.971313 
	C573.548767,1151.958984 571.232056,1149.791992 567.744568,1148.591431 
	C565.860107,1147.942871 563.770325,1147.702271 562.080750,1146.738403 
	C560.835327,1146.028076 559.044983,1143.956055 559.329346,1143.349243 
	C559.977417,1141.966431 561.681396,1140.364136 563.086060,1140.232300 
	C564.808167,1140.070679 566.688293,1141.255737 568.451050,1141.978271 
	C569.719116,1142.497925 570.906982,1143.213135 572.859192,1144.215088 
	C571.012573,1137.651733 566.776794,1135.090210 561.130371,1137.169434 
	C558.739197,1138.050049 555.774231,1140.865723 555.530945,1143.073120 
	C555.301575,1145.153809 557.922852,1148.072632 560.002869,1149.726074 
	C561.826843,1151.176270 564.734863,1151.180298 566.971008,1152.233154 
	C567.938965,1152.688721 568.984009,1154.183228 568.969360,1155.190918 
	C568.954285,1156.233032 567.689636,1158.136597 566.982727,1158.131470 
	C564.386963,1158.112793 561.742126,1157.653564 559.224304,1156.963867 
	C557.853149,1156.588135 556.700439,1155.415039 555.449219,1154.601562 
	C555.023987,1155.089233 554.598755,1155.576904 554.173523,1156.064697 
	C555.383362,1157.676880 556.593201,1159.289185 558.465332,1161.228638 
M625.609741,1157.006348 
	C628.366333,1161.820435 632.871094,1163.938477 638.182373,1161.782715 
	C640.531799,1160.828857 643.359253,1157.920410 643.553040,1155.689209 
	C643.738586,1153.553711 641.176270,1150.666504 639.104675,1149.002319 
	C637.289001,1147.543579 634.381287,1147.526489 632.151489,1146.462891 
	C631.162537,1145.991333 629.944397,1144.380615 630.101257,1143.518188 
	C630.318848,1142.321777 631.712646,1140.469238 632.639282,1140.447632 
	C634.768738,1140.397705 636.964905,1141.150024 639.046204,1141.841064 
	C640.324219,1142.265503 641.440002,1143.178345 643.478027,1144.367310 
	C642.713196,1138.260254 639.407227,1136.877197 635.326721,1136.684814 
	C631.197998,1136.489868 627.180847,1137.670898 626.359741,1142.056152 
	C625.964722,1144.166016 627.737244,1147.265991 629.452148,1149.008057 
	C630.907227,1150.486328 633.868347,1150.353027 635.830139,1151.501465 
	C637.448730,1152.448975 638.579834,1154.229004 639.927063,1155.640015 
	C638.100708,1156.756714 636.350281,1158.560059 634.423889,1158.773071 
	C632.879578,1158.943970 631.199219,1156.953857 629.432068,1156.362793 
	C628.213074,1155.955322 626.743164,1156.298340 625.609741,1157.006348 
M546.653442,1142.582397 
	C547.780884,1142.904419 548.908264,1143.226440 550.035645,1143.548340 
	C550.375122,1142.846802 550.714539,1142.145386 551.053955,1141.443848 
	C548.647644,1139.902954 546.304932,1137.245605 543.818970,1137.103882 
	C540.704895,1136.926514 536.888672,1138.071045 534.439209,1139.997437 
	C531.329285,1142.443115 532.539062,1147.118164 536.319092,1149.089355 
	C538.646790,1150.303345 541.435181,1150.643066 543.740479,1151.887207 
	C545.084839,1152.612671 546.917969,1154.602661 546.679688,1155.565796 
	C546.348450,1156.904419 544.295898,1158.681396 542.952820,1158.704712 
	C540.893555,1158.740601 538.787659,1157.501465 536.746582,1156.690063 
	C535.404968,1156.156860 534.142639,1155.424194 531.886536,1154.305786 
	C534.667603,1162.316772 543.438782,1164.722290 548.550354,1160.229370 
	C552.222961,1157.001343 551.733826,1151.746338 547.315186,1149.416992 
	C545.140747,1148.270752 542.437012,1148.095459 540.328369,1146.869263 
	C538.903015,1146.040649 538.097839,1144.145264 537.015259,1142.727051 
	C538.633362,1141.822632 540.186096,1140.393555 541.890442,1140.181152 
	C543.233582,1140.013916 544.763428,1141.345459 546.653442,1142.582397 
M1530.294556,1137.100586 
	C1525.791260,1135.951660 1521.843384,1136.706665 1519.697876,1141.184448 
	C1517.047485,1146.716187 1517.000977,1152.526123 1519.791870,1158.004517 
	C1522.639893,1163.594727 1530.246582,1164.021240 1533.899536,1159.044312 
	C1538.201782,1153.182739 1536.681030,1141.975098 1530.294556,1137.100586 
M1537.860840,1113.645874 
	C1538.027100,1117.385010 1537.453613,1121.356934 1538.539429,1124.806641 
	C1540.029297,1129.539673 1544.145264,1131.594238 1549.192139,1131.260742 
	C1554.214355,1130.928833 1557.457886,1128.448364 1558.143066,1122.918457 
	C1556.440918,1123.404053 1554.948730,1124.227051 1553.818848,1125.399170 
	C1550.333984,1129.013672 1544.322144,1128.723999 1542.562744,1124.177246 
	C1541.400757,1121.174438 1541.173340,1117.261719 1542.006836,1114.153076 
	C1543.582764,1108.275024 1549.915649,1107.433350 1554.072876,1111.961670 
	C1555.077271,1113.055786 1556.712891,1113.570557 1559.094604,1114.953735 
	C1557.368286,1108.459351 1554.190674,1106.002197 1549.341797,1105.678467 
	C1543.851196,1105.311768 1540.132202,1107.835327 1537.860840,1113.645874 
M456.686157,1109.637573 
	C455.609161,1108.403320 454.713379,1106.855713 453.371429,1106.079590 
	C452.784271,1105.739990 450.615601,1106.722046 450.304138,1107.538452 
	C447.397339,1115.156860 444.738220,1122.869751 442.007416,1130.555420 
	C442.447754,1130.902344 442.888062,1131.249390 443.328400,1131.596436 
	C444.517151,1130.517944 446.450958,1129.614502 446.753113,1128.327881 
	C447.614410,1124.660034 449.876221,1124.296387 453.009003,1124.343262 
	C456.040039,1124.388672 458.448090,1124.458130 459.337677,1128.222046 
	C459.648163,1129.535889 461.754456,1130.425415 463.040649,1131.508789 
	C463.391876,1131.145508 463.743103,1130.782349 464.094330,1130.419067 
	C461.708954,1123.742188 459.323578,1117.065308 456.686157,1109.637573 
M433.149231,1152.952026 
	C438.217285,1150.549561 440.099518,1147.395996 438.858093,1142.845215 
	C437.602020,1138.240845 434.149902,1136.776855 429.695496,1136.915405 
	C427.088196,1136.996582 424.476288,1136.930298 421.384338,1136.930298 
	C421.384338,1144.882202 421.285889,1152.326660 421.511017,1159.761597 
	C421.538635,1160.673950 423.297394,1161.534058 425.021820,1163.128296 
	C425.258179,1158.819336 425.401031,1156.214844 425.555054,1153.406860 
	C428.061310,1153.273682 430.189697,1153.160522 433.149231,1152.952026 
M502.347443,1120.082886 
	C503.251373,1119.472900 504.155304,1118.862915 505.059296,1118.252930 
	C504.175873,1117.781616 503.316711,1116.968384 502.404419,1116.903809 
	C499.802490,1116.718994 497.178955,1116.838867 494.312073,1116.838867 
	C494.312073,1114.104492 494.312073,1111.849976 494.312073,1109.196533 
	C496.709564,1109.196533 499.026855,1109.412842 501.280579,1109.127441 
	C503.056549,1108.902466 506.468903,1110.775879 505.810822,1106.201538 
	C500.705383,1106.201538 495.637695,1106.201538 490.389221,1106.201538 
	C490.389221,1114.521729 490.389221,1122.564575 490.389221,1130.771729 
	C495.737091,1130.771729 500.798279,1130.771729 507.005005,1130.771729 
	C503.173370,1125.445312 497.972382,1129.298096 494.306976,1127.169800 
	C494.306976,1125.033081 494.306976,1122.779419 494.306976,1120.084839 
	C496.840912,1120.084839 499.126312,1120.084839 502.347443,1120.082886 
M1509.622559,1145.121216 
	C1505.339600,1150.374512 1501.056641,1155.627808 1496.062988,1161.752808 
	C1502.944580,1161.752808 1508.343750,1161.752808 1514.943604,1161.752808 
	C1511.922974,1156.588135 1506.838623,1160.414062 1503.730835,1157.817627 
	C1506.301270,1154.920166 1508.892578,1152.165161 1511.288940,1149.250244 
	C1513.568115,1146.477539 1514.926025,1142.809204 1512.259033,1140.202881 
	C1510.219116,1138.209351 1506.551514,1137.106934 1503.576660,1137.041626 
	C1499.901367,1136.961060 1497.845947,1139.817993 1497.247559,1145.017212 
	C1499.217285,1143.769775 1500.291138,1142.989258 1501.453735,1142.377686 
	C1503.084961,1141.519409 1504.965088,1139.937256 1506.398926,1140.245361 
	C1507.761230,1140.538208 1508.686646,1142.864136 1509.622559,1145.121216 
M1546.063599,1153.540527 
	C1544.334595,1156.215332 1540.193481,1157.469360 1540.887939,1161.763184 
	C1546.481812,1161.763184 1551.741089,1161.763184 1557.587769,1161.763184 
	C1555.305054,1156.065063 1549.858276,1160.753540 1547.114014,1157.908081 
	C1550.095459,1154.268311 1553.613037,1151.012695 1555.683960,1147.008911 
	C1556.724365,1144.997437 1556.089355,1140.414551 1554.501709,1139.161621 
	C1552.304321,1137.427490 1548.306274,1136.852905 1545.438843,1137.465332 
	C1543.361206,1137.909058 1541.867432,1141.085815 1540.113403,1143.043823 
	C1540.705200,1143.575928 1541.297119,1144.108032 1541.889038,1144.640137 
	C1542.923950,1143.720093 1543.816650,1142.439209 1545.026245,1141.962402 
	C1546.952026,1141.203857 1549.088745,1140.980713 1551.136230,1140.531128 
	C1551.468994,1142.574097 1552.652100,1145.004150 1551.938965,1146.571045 
	C1550.819336,1149.030884 1548.420776,1150.908569 1546.063599,1153.540527 
M503.250000,1136.925903 
	C499.648132,1136.925903 496.046234,1136.925903 492.111786,1136.925903 
	C492.111786,1144.890015 492.011963,1152.194336 492.225891,1159.489624 
	C492.255890,1160.513306 493.822845,1161.491943 494.678345,1162.491455 
	C495.162231,1162.213623 495.646118,1161.935791 496.130005,1161.657959 
	C496.130005,1158.242432 496.130005,1154.826904 496.130005,1150.830078 
	C499.986755,1150.830078 503.353333,1150.830078 507.870667,1150.830078 
	C504.246246,1145.659668 499.357086,1149.491211 496.382904,1147.244263 
	C496.382904,1144.917847 496.382904,1142.687866 496.382904,1140.194702 
	C499.201172,1140.194702 501.703552,1140.347656 504.173492,1140.130859 
	C505.432770,1140.020386 506.633759,1139.245850 507.861115,1138.771484 
	C506.628540,1138.156372 505.395966,1137.541382 503.250000,1136.925903 
M471.836426,1105.925781 
	C470.172089,1106.426514 468.507782,1106.927368 466.843445,1107.428101 
	C468.432159,1108.019165 470.004303,1108.661987 471.617065,1109.177979 
	C472.358490,1109.415161 473.179504,1109.403564 474.509094,1109.574951 
	C474.509094,1115.847656 474.386383,1121.941162 474.617065,1128.021240 
	C474.660919,1129.177368 476.103302,1130.280151 476.900421,1131.407593 
	C477.476196,1131.138550 478.052002,1130.869507 478.627808,1130.600464 
	C478.627808,1123.583496 478.627808,1116.566406 478.627808,1109.193970 
	C480.526428,1109.193970 481.870758,1109.401733 483.110199,1109.130493 
	C484.165466,1108.899536 485.100037,1108.117065 486.088013,1107.578613 
	C485.123566,1107.028320 484.182770,1106.059448 483.190369,1106.003418 
	C479.722107,1105.807373 476.236023,1105.926392 471.836426,1105.925781 
M1502.970703,1126.316040 
	C1503.035034,1127.774902 1503.099243,1129.233643 1503.163452,1130.692505 
	C1503.548950,1130.976440 1503.934448,1131.260376 1504.319946,1131.544434 
	C1505.183228,1130.532715 1506.758057,1129.545776 1506.793945,1128.505371 
	C1507.022583,1121.894897 1507.034180,1115.267944 1506.788330,1108.658691 
	C1506.748779,1107.592285 1505.064819,1106.587158 1504.141113,1105.553589 
	C1503.750977,1105.882690 1503.360840,1106.211914 1502.970703,1106.541016 
	C1502.970703,1112.810425 1502.970703,1119.079712 1502.970703,1126.316040 
z"/>
<path fill="#9C00FE" opacity="1.000000" stroke="none" 
	d="
M313.523682,933.483398 
	C315.712097,910.752197 322.207520,890.122742 335.616089,871.839050 
	C349.577179,852.802063 368.163513,840.303711 390.513641,833.995544 
	C432.147461,822.244751 474.103424,821.952271 515.699463,834.220032 
	C547.137390,843.491882 571.155579,862.512085 586.544312,891.829407 
	C586.993042,892.684265 587.384766,893.568909 587.598206,894.013306 
	C565.276123,903.913940 543.120605,913.740723 521.150818,923.485107 
	C516.578857,918.326965 512.440247,912.076233 506.856689,907.647156 
	C488.216797,892.861389 466.361206,888.288269 443.034637,889.634094 
	C432.955475,890.215576 423.147095,892.295044 414.586731,897.915527 
	C397.126099,909.379822 389.903381,926.368164 390.387787,946.583191 
	C391.163330,978.948059 411.371246,999.438538 443.587860,1002.147217 
	C456.844635,1003.261902 469.875488,1002.881775 482.766846,999.701843 
	C499.813568,995.497009 512.348328,985.748718 519.282898,969.319092 
	C519.654175,968.439392 520.233948,967.647644 520.853455,966.579041 
	C530.888123,971.483521 540.665527,976.393738 550.557861,981.060303 
	C560.456482,985.729858 570.469971,990.156128 580.786194,994.849731 
	C585.911072,985.171326 593.398560,978.373352 603.098633,974.600708 
	C612.342590,971.005310 621.960266,968.370911 632.478577,964.969727 
	C616.662170,955.150330 601.084961,945.479492 584.399597,935.120667 
	C592.048950,927.660156 599.287720,919.697327 607.440979,912.818420 
	C631.333252,892.661011 659.744629,886.168640 690.279419,886.551575 
	C705.689941,886.744812 720.874084,888.337158 735.515564,893.388184 
	C763.997681,903.213806 779.590637,923.861450 782.803467,953.166443 
	C784.756775,970.982544 784.127869,989.083557 784.605957,1007.057983 
	C784.720093,1011.349670 784.622925,1015.646851 785.494019,1019.929688 
	C787.910217,976.811707 786.832947,933.717651 784.588928,890.277832 
	C806.132996,890.277832 827.358521,890.277832 849.089966,890.277832 
	C852.096741,904.886597 855.140869,919.677063 858.554626,936.263428 
	C868.253906,905.627319 886.556946,887.260803 918.729553,886.582642 
	C948.379883,885.957581 965.463379,899.428284 979.197510,934.329956 
	C990.173889,907.026550 1008.238831,888.714661 1038.694336,886.852966 
	C1069.693970,884.958008 1089.955933,899.733887 1100.337280,929.530945 
	C1100.337280,915.888184 1100.337280,903.192505 1100.337280,890.163086 
	C1120.306274,890.163086 1140.387329,890.163086 1160.989136,890.163086 
	C1163.922974,902.583496 1166.892334,915.154114 1170.230835,929.287659 
	C1182.736206,899.561157 1205.679321,887.934998 1235.209106,886.829651 
	C1266.030029,885.675903 1286.655640,901.282837 1301.153687,927.440552 
	C1301.153687,921.000732 1301.153687,915.018005 1301.153687,909.035278 
	C1301.153687,902.893982 1301.153687,896.752747 1301.153687,890.218872 
	C1324.301147,890.218872 1347.853027,890.218872 1371.962036,890.218872 
	C1371.962036,892.118103 1371.997437,894.057129 1371.956543,895.994568 
	C1371.373413,923.652344 1370.688599,951.308594 1370.272949,978.968811 
	C1370.198730,983.914673 1370.738281,988.990234 1371.849487,993.808716 
	C1374.265869,1004.287537 1382.025269,1011.506592 1391.363770,1012.762451 
	C1400.709961,1014.019409 1410.452026,1009.243713 1414.942749,999.390869 
	C1418.040039,992.595032 1420.578613,984.868164 1420.701904,977.512756 
	C1421.178467,949.034546 1420.585571,920.538391 1420.401611,892.048889 
	C1420.398560,891.569336 1420.528076,891.088928 1420.650146,890.224609 
	C1445.719238,890.224609 1470.777100,890.224609 1495.810181,890.224609 
	C1495.810181,900.382324 1495.810181,910.580750 1495.810181,919.772522 
	C1500.837891,915.148254 1506.069336,909.281494 1512.303101,904.812561 
	C1527.364136,894.015503 1545.060913,890.374939 1563.023560,888.289978 
	C1594.493408,884.637024 1625.544312,886.261169 1655.658203,897.146362 
	C1667.899536,901.571167 1679.494873,907.241333 1691.347046,915.991882 
	C1679.133667,927.794922 1667.366821,939.278381 1655.378540,950.525940 
	C1654.483887,951.365295 1651.854492,950.939514 1650.286011,950.383911 
	C1638.399292,946.173035 1626.781860,941.049622 1614.675903,937.652466 
	C1602.297363,934.178833 1589.360107,932.940063 1576.630005,936.191589 
	C1572.426392,937.265259 1568.094360,939.450317 1564.907471,942.329529 
	C1562.732056,944.295044 1561.028442,948.705322 1561.704956,951.362854 
	C1562.379150,954.010925 1565.989502,957.052612 1568.842285,957.747681 
	C1573.567139,958.898926 1578.745239,958.719238 1583.682373,958.377319 
	C1604.625610,956.927124 1625.557251,954.811096 1646.512817,957.976318 
	C1658.339966,959.762939 1669.495361,963.306213 1678.990234,971.036560 
	C1687.102051,977.640930 1691.296997,986.252808 1692.038208,996.499329 
	C1694.307617,1027.872070 1679.859375,1048.817383 1648.934937,1058.840942 
	C1622.807861,1067.309570 1596.008179,1068.535522 1568.903442,1065.524048 
	C1544.514526,1062.814209 1521.351562,1055.926514 1499.463989,1044.797729 
	C1498.460083,1044.287231 1497.422974,1043.842285 1496.101685,1043.227417 
	C1496.101685,1050.204834 1496.101685,1056.754883 1496.101685,1063.390015 
	C1474.792236,1063.390015 1453.696533,1063.390015 1432.072754,1063.390015 
	C1429.177124,1048.840942 1426.236694,1034.067871 1423.296387,1019.294800 
	C1412.096680,1051.492798 1390.869263,1069.629395 1355.917847,1066.417603 
	C1327.804932,1063.834473 1310.276245,1047.499512 1303.236694,1018.588562 
	C1289.529541,1046.496338 1270.560303,1066.310913 1238.431030,1066.848633 
	C1207.974243,1067.358276 1183.458496,1056.453735 1169.089844,1027.170776 
	C1170.069580,1063.785400 1171.049316,1100.400146 1172.040161,1137.429688 
	C1147.924927,1137.429688 1124.214966,1137.429688 1100.521729,1137.429688 
	C1100.521729,1113.127686 1100.521729,1088.880127 1100.521729,1063.997803 
	C1077.554932,1063.997803 1054.175659,1063.997803 1030.279907,1063.997803 
	C1030.666748,1055.432617 1031.143188,1047.512573 1031.359253,1039.585449 
	C1031.913086,1019.263123 1032.450073,998.939270 1032.789795,978.612610 
	C1032.937744,969.768860 1031.354004,961.227356 1024.975586,954.516846 
	C1012.265869,941.145325 990.581116,945.629333 983.973389,963.466736 
	C981.432739,970.325317 980.254700,978.076904 980.260742,985.420105 
	C980.281494,1010.575562 981.104675,1035.730347 981.610535,1060.885498 
	C981.626465,1061.679443 981.518066,1062.475830 981.450134,1063.546143 
	C957.650085,1063.546143 934.085205,1063.546143 910.312378,1063.546143 
	C910.312378,1059.378418 910.240540,1055.427490 910.324097,1051.479614 
	C910.839111,1027.155762 911.589905,1002.834229 911.774841,978.508179 
	C911.816772,972.989014 910.675720,967.183899 908.771057,961.990173 
	C905.729126,953.695496 899.635803,948.169800 890.437744,947.035522 
	C880.650146,945.828430 873.315979,949.979126 867.858032,957.850159 
	C862.245544,965.944092 860.131836,975.195312 860.129517,984.794067 
	C860.123474,1009.950745 860.494202,1035.107544 860.713257,1060.264282 
	C860.721741,1061.234131 860.714355,1062.204102 860.714355,1063.837769 
	C858.619751,1063.837769 856.847839,1063.837769 855.075928,1063.837891 
	C834.743347,1063.838379 814.409180,1063.686279 794.078613,1063.890503 
	C779.436829,1064.037720 764.783508,1065.294434 750.164368,1064.921143 
	C727.844238,1064.351196 716.392273,1053.229980 713.844543,1031.007202 
	C713.305237,1026.303101 713.122803,1021.558044 712.689514,1015.654114 
	C711.632080,1017.971558 711.031982,1019.248291 710.463379,1020.538879 
	C696.741882,1051.682495 673.654053,1066.280640 639.589539,1065.440796 
	C628.556946,1065.168823 617.701904,1064.167969 607.202698,1060.324585 
	C590.355591,1054.157471 580.286499,1042.567993 577.714966,1024.676514 
	C577.460815,1022.908386 577.105469,1021.154785 576.722046,1018.966370 
	C572.494934,1023.616638 568.738831,1028.205933 564.515381,1032.315063 
	C546.980957,1049.374634 524.763489,1056.921509 501.624939,1061.786255 
	C465.440369,1069.393799 429.256561,1069.035522 393.199341,1060.052124 
	C347.958679,1048.781006 318.223511,1014.803955 314.113647,968.352112 
	C313.104767,956.949524 313.622284,945.411926 313.523682,933.483398 
M1184.277466,1003.295959 
	C1193.299438,1008.903076 1203.118408,1010.887451 1213.414429,1008.493408 
	C1229.957031,1004.646851 1239.696411,991.515808 1238.808228,975.084839 
	C1237.708496,954.745850 1227.443481,942.306519 1209.288696,940.422363 
	C1196.804565,939.126709 1184.607422,940.822998 1176.454102,951.743408 
	C1165.108154,966.940002 1168.796387,991.017212 1184.277466,1003.295959 
M1599.338867,1012.960632 
	C1604.608276,1011.119751 1610.121582,1009.765259 1615.069946,1007.284119 
	C1619.027588,1005.299866 1620.757568,1001.172119 1619.702759,996.609985 
	C1618.653198,992.070251 1615.446533,989.369080 1610.891357,988.992859 
	C1605.613647,988.556824 1600.275879,988.429016 1594.984863,988.655273 
	C1579.866455,989.301941 1564.751221,990.953796 1549.648071,990.809692 
	C1528.632080,990.609314 1508.633179,986.684875 1495.006592,968.565491 
	C1495.006592,986.391174 1495.006592,1004.299500 1495.006592,1023.565918 
	C1503.567261,1011.922424 1511.205322,1001.533752 1518.728882,991.300720 
	C1543.668945,1006.389954 1569.749268,1014.546631 1599.338867,1012.960632 
M703.464111,984.143738 
	C694.027649,986.106018 684.571350,987.978333 675.160767,990.057678 
	C666.922546,991.878052 658.618164,993.551636 650.576599,996.043823 
	C646.644165,997.262573 644.127991,1000.737000 644.768311,1005.458496 
	C645.427124,1010.315796 649.083191,1012.325745 653.138428,1012.750244 
	C672.028931,1014.727722 689.695984,1011.234863 704.759521,999.036194 
	C710.188416,994.639893 715.002136,989.268921 712.505127,980.624023 
	C709.713196,981.748657 706.977844,982.850525 703.464111,984.143738 
M653.614990,955.074707 
	C650.581848,957.763672 647.548706,960.452637 644.170410,963.447571 
	C662.815674,962.889160 680.592590,962.472900 698.355164,961.718262 
	C701.573425,961.581543 705.038086,960.613037 707.858398,959.063171 
	C714.601929,955.357239 714.464844,948.706421 707.676941,945.222961 
	C705.234253,943.969421 702.345032,943.259216 699.592224,942.990295 
	C683.077637,941.376953 667.837585,944.957886 653.614990,955.074707 
z"/>
<path fill="#B63F00" opacity="1.000000" stroke="none" 
	d="
M1678.930908,1097.954468 
	C1695.515259,1100.902344 1706.813354,1109.861328 1711.767700,1125.585205 
	C1719.131592,1148.956177 1701.128418,1172.948975 1675.239380,1174.876953 
	C1657.202759,1176.220093 1639.550415,1165.787598 1633.327271,1150.106567 
	C1624.124390,1126.917358 1639.946533,1100.825684 1665.067871,1098.018799 
	C1669.495117,1097.524170 1674.022949,1097.928223 1678.930908,1097.954468 
z"/>
<path fill="#B63F00" opacity="1.000000" stroke="none" 
	d="
M357.044983,1155.016724 
	C362.926086,1141.703125 368.807190,1128.389648 375.160706,1114.006592 
	C383.571960,1123.363403 391.250671,1131.905273 399.778687,1141.391846 
	C385.274323,1146.125000 371.511200,1150.616211 357.373566,1155.043457 
	C356.999054,1154.979492 357.044983,1155.016724 357.044983,1155.016724 
z"/>
<path fill="#BEBCB7" opacity="1.000000" stroke="none" 
	d="
M1522.845093,1122.234375 
	C1520.920288,1119.491089 1519.202759,1117.044067 1517.448730,1114.623535 
	C1517.306152,1114.426636 1516.914185,1114.410645 1516.188843,1114.147705 
	C1516.188843,1119.691040 1516.188843,1125.074341 1516.188843,1130.457764 
	C1515.738159,1130.779053 1515.287476,1131.100342 1514.836792,1131.421631 
	C1513.927246,1130.361450 1512.264648,1129.325439 1512.229736,1128.237183 
	C1511.995728,1120.943481 1512.108032,1113.638550 1512.108032,1105.311646 
	C1520.910156,1108.392212 1521.698120,1117.708374 1528.242920,1122.428955 
	C1528.242920,1117.059937 1528.242920,1111.793091 1528.242920,1106.526123 
	C1528.770142,1106.201416 1529.297241,1105.876587 1529.824463,1105.551758 
	C1530.748779,1106.457397 1532.447388,1107.340088 1532.474854,1108.272217 
	C1532.694336,1115.715210 1532.597534,1123.167358 1532.597534,1130.943848 
	C1526.243286,1131.188843 1526.079468,1125.237915 1522.845093,1122.234375 
z"/>
<path fill="#BEBCB7" opacity="1.000000" stroke="none" 
	d="
M1563.399780,1158.477783 
	C1560.638916,1152.694214 1560.915894,1147.145264 1563.194824,1141.745728 
	C1564.680664,1138.225586 1567.601074,1136.412842 1571.556519,1136.675537 
	C1575.463013,1136.934814 1577.940063,1138.912231 1579.203491,1143.591919 
	C1577.500000,1143.269775 1576.115845,1143.399780 1575.274292,1142.785889 
	C1569.414551,1138.512329 1566.897461,1139.490967 1565.680054,1146.777344 
	C1568.185547,1146.445068 1570.855225,1145.405029 1573.098755,1145.992554 
	C1575.204590,1146.543945 1577.446411,1148.470337 1578.585938,1150.405518 
	C1580.638428,1153.890869 1578.968628,1158.726318 1575.635254,1160.963501 
	C1572.004272,1163.400635 1567.515259,1162.586914 1563.399780,1158.477783 
M1569.748657,1148.943481 
	C1566.093262,1149.958252 1564.967651,1152.706665 1566.292847,1155.770142 
	C1566.939331,1157.264648 1569.741943,1159.033325 1571.100342,1158.709961 
	C1572.824707,1158.299561 1574.970947,1156.072021 1575.328613,1154.303223 
	C1575.955566,1151.203857 1574.100952,1148.996826 1569.748657,1148.943481 
z"/>
<path fill="#BEBCB7" opacity="1.000000" stroke="none" 
	d="
M456.078888,1159.065796 
	C454.021210,1155.713013 453.336884,1150.925293 447.439453,1153.330444 
	C447.439453,1155.971680 447.439453,1158.735718 447.439453,1161.499634 
	C447.009888,1161.814209 446.580322,1162.128784 446.150787,1162.443237 
	C445.228149,1161.520752 443.533447,1160.621094 443.505280,1159.671997 
	C443.284393,1152.230103 443.382874,1144.778809 443.382874,1136.927979 
	C446.404572,1136.927979 448.872375,1136.987061 451.336273,1136.914429 
	C455.230957,1136.799683 458.693909,1137.523682 460.482574,1141.496704 
	C462.057343,1144.994507 460.997620,1148.280273 456.990540,1152.277710 
	C457.742462,1153.769897 458.527557,1155.367188 459.348724,1156.945679 
	C460.112305,1158.413574 460.914368,1159.861572 461.699524,1161.318237 
	C461.421631,1161.722534 461.143738,1162.126831 460.865845,1162.531128 
	C459.323578,1161.492310 457.781281,1160.453613 456.078888,1159.065796 
M448.781677,1149.063599 
	C449.614319,1149.081421 450.446869,1149.104980 451.279572,1149.116211 
	C454.354279,1149.157471 457.112244,1148.727661 457.082825,1144.722290 
	C457.053864,1140.784790 454.233917,1140.305054 451.230560,1140.196899 
	C450.102783,1140.156128 448.967285,1140.328369 447.110992,1140.451538 
	C447.402985,1143.364746 447.674469,1146.073242 448.781677,1149.063599 
z"/>
<path fill="#BEBCB7" opacity="1.000000" stroke="none" 
	d="
M438.578247,1130.973877 
	C433.902191,1131.382812 433.895782,1127.398926 432.634094,1125.068604 
	C430.981720,1122.016479 429.027802,1121.052002 425.493774,1122.164429 
	C425.371887,1124.929688 425.250061,1127.693359 425.049744,1132.237793 
	C423.266815,1130.528076 421.536285,1129.648804 421.508362,1128.718384 
	C421.285004,1121.273071 421.383575,1113.818237 421.383575,1105.927856 
	C424.375000,1105.927856 426.837097,1105.986816 429.295288,1105.914307 
	C433.183655,1105.799683 436.658783,1106.494019 438.467010,1110.461060 
	C440.067932,1113.973267 439.016876,1117.265259 435.259766,1120.987549 
	C436.492493,1124.310913 437.720551,1127.621582 438.578247,1130.973877 
M433.532806,1117.271973 
	C433.813873,1115.198486 434.952515,1111.765869 434.217865,1111.302368 
	C431.859192,1109.814209 428.808167,1109.423462 425.637024,1108.496216 
	C425.637024,1112.454956 425.637024,1115.128540 425.637024,1118.213867 
	C428.280731,1118.037231 430.546661,1117.885864 433.532806,1117.271973 
z"/>
<path fill="#BEBCB7" opacity="1.000000" stroke="none" 
	d="
M580.056458,1140.133179 
	C585.418701,1135.919800 590.668823,1135.526733 594.920898,1138.751709 
	C599.341553,1142.104614 600.912720,1149.788940 598.378906,1155.665527 
	C596.239258,1160.628174 591.802307,1162.987305 586.193604,1162.144653 
	C579.094788,1161.078003 574.989258,1152.954590 577.552979,1144.819946 
	C578.041565,1143.269775 579.046204,1141.882324 580.056458,1140.133179 
M581.397705,1153.592407 
	C582.911987,1157.531738 585.716980,1159.619751 589.924133,1158.569824 
	C594.664917,1157.386719 595.734192,1153.393188 595.671448,1149.209961 
	C595.607971,1144.974243 594.211914,1141.255127 589.416077,1140.218018 
	C585.650085,1139.403564 581.905762,1142.118042 581.177734,1146.356812 
	C580.818909,1148.446045 581.134521,1150.651001 581.397705,1153.592407 
z"/>
<path fill="#BEBCB7" opacity="1.000000" stroke="none" 
	d="
M474.557434,1162.189941 
	C467.043732,1159.999390 463.948395,1154.766479 465.066772,1146.735474 
	C465.909424,1140.684448 470.349335,1136.632812 476.157715,1136.614258 
	C482.872223,1136.592896 487.388489,1141.524048 487.583496,1149.090088 
	C487.798340,1157.426025 483.358307,1162.040649 474.557434,1162.189941 
M469.397644,1153.592285 
	C470.911896,1157.531616 473.716949,1159.619751 477.924011,1158.569946 
	C482.664795,1157.386963 483.734070,1153.393433 483.671387,1149.210083 
	C483.607910,1144.974365 482.211884,1141.255371 477.416290,1140.218018 
	C473.650177,1139.403320 469.905945,1142.117676 469.177795,1146.356567 
	C468.818909,1148.445801 469.134460,1150.650757 469.397644,1153.592285 
z"/>
<path fill="#BEBCB7" opacity="1.000000" stroke="none" 
	d="
M621.223633,1147.234375 
	C619.999329,1149.199951 618.878296,1150.792480 617.598389,1152.610474 
	C619.030212,1155.335205 620.559326,1158.245117 622.142761,1161.258301 
	C618.241455,1163.484985 617.347717,1160.440918 616.064697,1158.107788 
	C614.430847,1155.136475 613.513855,1151.119873 608.455383,1153.058228 
	C605.858643,1155.281006 611.216003,1161.220337 604.291138,1162.206665 
	C604.291138,1153.821167 604.291138,1145.751953 604.291138,1137.652954 
	C616.302734,1135.221069 622.860107,1138.030396 621.223633,1147.234375 
M608.112427,1140.989868 
	C608.112427,1143.593872 608.112427,1146.197754 608.112427,1149.075317 
	C611.979858,1148.651489 616.603455,1150.936035 617.641357,1145.147949 
	C618.306824,1141.437012 615.492188,1140.030762 608.112427,1140.989868 
z"/>
<path fill="#BEBCB7" opacity="1.000000" stroke="none" 
	d="
M512.455688,1160.503540 
	C512.398743,1152.592773 512.398743,1145.142944 512.398743,1137.311035 
	C517.726929,1137.311035 522.747375,1137.311035 527.773987,1137.311035 
	C527.543091,1139.508179 527.543091,1139.508179 516.731934,1140.536255 
	C516.731934,1142.682007 516.731934,1144.877563 516.731934,1147.049072 
	C519.725586,1149.764404 525.079834,1145.225098 528.152100,1150.988525 
	C523.809814,1150.988525 520.395874,1150.988525 516.636719,1150.988525 
	C516.636719,1153.650391 516.636719,1155.847534 516.636719,1157.940796 
	C520.212524,1160.503906 525.510803,1156.373413 528.423767,1160.545654 
	C528.331360,1161.167847 528.239014,1161.790039 528.146667,1162.412231 
	C522.935303,1161.929688 517.723938,1161.447144 512.455688,1160.503540 
z"/>
<path fill="#BEBCB7" opacity="1.000000" stroke="none" 
	d="
M1575.459229,1105.925781 
	C1576.967163,1106.500977 1578.043945,1107.076050 1579.120850,1107.651123 
	C1578.111450,1108.165771 1577.131226,1109.039795 1576.086914,1109.124512 
	C1573.456787,1109.337646 1570.797729,1109.195068 1567.720825,1109.195068 
	C1567.720825,1111.693848 1567.720825,1113.894897 1567.720825,1116.056885 
	C1570.742554,1118.743896 1576.099243,1114.190674 1579.116211,1120.010986 
	C1574.787231,1120.010986 1571.367798,1120.010986 1567.620239,1120.010986 
	C1567.620239,1122.676514 1567.620239,1124.877441 1567.620239,1126.954712 
	C1571.250854,1129.449707 1576.531128,1125.386475 1580.211548,1130.701782 
	C1574.146362,1130.701782 1569.092163,1130.701782 1563.700195,1130.701782 
	C1563.700195,1122.695312 1563.700195,1114.640259 1563.700195,1105.925781 
	C1567.520752,1105.925781 1571.274536,1105.925781 1575.459229,1105.925781 
z"/>
<path fill="#BEBCB7" opacity="1.000000" stroke="none" 
	d="
M1486.095703,1106.019775 
	C1494.015015,1105.247681 1496.559692,1106.661377 1497.894897,1113.297119 
	C1496.034058,1112.219238 1494.889282,1111.344482 1493.598145,1110.857910 
	C1491.671997,1110.131958 1489.610352,1109.174805 1487.669678,1109.299805 
	C1486.500610,1109.375122 1484.903687,1111.167358 1484.550415,1112.472778 
	C1484.332642,1113.277100 1485.875854,1115.064697 1487.014526,1115.621704 
	C1489.227783,1116.704346 1492.151001,1116.684448 1493.966309,1118.137695 
	C1495.912598,1119.695679 1498.144409,1122.506226 1498.001343,1124.617798 
	C1497.854858,1126.783203 1495.395630,1129.697510 1493.230103,1130.648438 
	C1487.079956,1133.349487 1481.522827,1130.486328 1479.667114,1123.078735 
	C1481.861206,1124.424683 1483.035889,1125.386108 1484.380493,1125.914062 
	C1486.431519,1126.719727 1488.636719,1127.788574 1490.705444,1127.654175 
	C1492.007202,1127.569580 1493.703857,1125.668701 1494.191040,1124.232544 
	C1494.440063,1123.498779 1492.605103,1121.692505 1491.369019,1120.918945 
	C1490.008179,1120.067383 1487.961426,1120.220825 1486.733398,1119.267212 
	C1484.421997,1117.472168 1481.417236,1115.525391 1480.651245,1113.040527 
	C1479.616333,1109.683594 1482.506348,1107.343750 1486.095703,1106.019775 
z"/>
<path fill="#BEBCB7" opacity="1.000000" stroke="none" 
	d="
M558.134216,1161.064941 
	C556.593201,1159.289185 555.383362,1157.676880 554.173523,1156.064697 
	C554.598755,1155.576904 555.023987,1155.089233 555.449219,1154.601562 
	C556.700439,1155.415039 557.853149,1156.588135 559.224304,1156.963867 
	C561.742126,1157.653564 564.386963,1158.112793 566.982727,1158.131470 
	C567.689636,1158.136597 568.954285,1156.233032 568.969360,1155.190918 
	C568.984009,1154.183228 567.938965,1152.688721 566.971008,1152.233154 
	C564.734863,1151.180298 561.826843,1151.176270 560.002869,1149.726074 
	C557.922852,1148.072632 555.301575,1145.153809 555.530945,1143.073120 
	C555.774231,1140.865723 558.739197,1138.050049 561.130371,1137.169434 
	C566.776794,1135.090210 571.012573,1137.651733 572.859192,1144.215088 
	C570.906982,1143.213135 569.719116,1142.497925 568.451050,1141.978271 
	C566.688293,1141.255737 564.808167,1140.070679 563.086060,1140.232300 
	C561.681396,1140.364136 559.977417,1141.966431 559.329346,1143.349243 
	C559.044983,1143.956055 560.835327,1146.028076 562.080750,1146.738403 
	C563.770325,1147.702271 565.860107,1147.942871 567.744568,1148.591431 
	C571.232056,1149.791992 573.548767,1151.958984 573.041687,1155.971313 
	C572.547852,1159.879028 569.875610,1161.846802 566.253723,1162.086060 
	C563.687622,1162.255371 561.063538,1161.545898 558.134216,1161.064941 
z"/>
<path fill="#BEBCB7" opacity="1.000000" stroke="none" 
	d="
M625.497559,1156.656128 
	C626.743164,1156.298340 628.213074,1155.955322 629.432068,1156.362793 
	C631.199219,1156.953857 632.879578,1158.943970 634.423889,1158.773071 
	C636.350281,1158.560059 638.100708,1156.756714 639.927063,1155.640015 
	C638.579834,1154.229004 637.448730,1152.448975 635.830139,1151.501465 
	C633.868347,1150.353027 630.907227,1150.486328 629.452148,1149.008057 
	C627.737244,1147.265991 625.964722,1144.166016 626.359741,1142.056152 
	C627.180847,1137.670898 631.197998,1136.489868 635.326721,1136.684814 
	C639.407227,1136.877197 642.713196,1138.260254 643.478027,1144.367310 
	C641.440002,1143.178345 640.324219,1142.265503 639.046204,1141.841064 
	C636.964905,1141.150024 634.768738,1140.397705 632.639282,1140.447632 
	C631.712646,1140.469238 630.318848,1142.321777 630.101257,1143.518188 
	C629.944397,1144.380615 631.162537,1145.991333 632.151489,1146.462891 
	C634.381287,1147.526489 637.289001,1147.543579 639.104675,1149.002319 
	C641.176270,1150.666504 643.738586,1153.553711 643.553040,1155.689209 
	C643.359253,1157.920410 640.531799,1160.828857 638.182373,1161.782715 
	C632.871094,1163.938477 628.366333,1161.820435 625.497559,1156.656128 
z"/>
<path fill="#BEBCB7" opacity="1.000000" stroke="none" 
	d="
M546.431885,1142.296875 
	C544.763428,1141.345459 543.233582,1140.013916 541.890442,1140.181152 
	C540.186096,1140.393555 538.633362,1141.822632 537.015259,1142.727051 
	C538.097839,1144.145264 538.903015,1146.040649 540.328369,1146.869263 
	C542.437012,1148.095459 545.140747,1148.270752 547.315186,1149.416992 
	C551.733826,1151.746338 552.222961,1157.001343 548.550354,1160.229370 
	C543.438782,1164.722290 534.667603,1162.316772 531.886536,1154.305786 
	C534.142639,1155.424194 535.404968,1156.156860 536.746582,1156.690063 
	C538.787659,1157.501465 540.893555,1158.740601 542.952820,1158.704712 
	C544.295898,1158.681396 546.348450,1156.904419 546.679688,1155.565796 
	C546.917969,1154.602661 545.084839,1152.612671 543.740479,1151.887207 
	C541.435181,1150.643066 538.646790,1150.303345 536.319092,1149.089355 
	C532.539062,1147.118164 531.329285,1142.443115 534.439209,1139.997437 
	C536.888672,1138.071045 540.704895,1136.926514 543.818970,1137.103882 
	C546.304932,1137.245605 548.647644,1139.902954 551.053955,1141.443848 
	C550.714539,1142.145386 550.375122,1142.846802 550.035645,1143.548340 
	C548.908264,1143.226440 547.780884,1142.904419 546.431885,1142.296875 
z"/>
<path fill="#BEBCB7" opacity="1.000000" stroke="none" 
	d="
M1530.629639,1137.258789 
	C1536.681030,1141.975098 1538.201782,1153.182739 1533.899536,1159.044312 
	C1530.246582,1164.021240 1522.639893,1163.594727 1519.791870,1158.004517 
	C1517.000977,1152.526123 1517.047485,1146.716187 1519.697876,1141.184448 
	C1521.843384,1136.706665 1525.791260,1135.951660 1530.629639,1137.258789 
M1532.396118,1149.494019 
	C1531.895874,1145.539429 1532.702271,1140.000977 1526.859497,1140.229858 
	C1521.607544,1140.435425 1521.911255,1145.627808 1521.935913,1149.546021 
	C1521.960449,1153.445679 1521.595337,1158.514648 1526.956177,1158.793335 
	C1532.207275,1159.066406 1531.915161,1154.103516 1532.396118,1149.494019 
z"/>
<path fill="#BEBCB7" opacity="1.000000" stroke="none" 
	d="
M1537.954590,1113.258911 
	C1540.132202,1107.835327 1543.851196,1105.311768 1549.341797,1105.678467 
	C1554.190674,1106.002197 1557.368286,1108.459351 1559.094604,1114.953735 
	C1556.712891,1113.570557 1555.077271,1113.055786 1554.072876,1111.961670 
	C1549.915649,1107.433350 1543.582764,1108.275024 1542.006836,1114.153076 
	C1541.173340,1117.261719 1541.400757,1121.174438 1542.562744,1124.177246 
	C1544.322144,1128.723999 1550.333984,1129.013672 1553.818848,1125.399170 
	C1554.948730,1124.227051 1556.440918,1123.404053 1558.143066,1122.918457 
	C1557.457886,1128.448364 1554.214355,1130.928833 1549.192139,1131.260742 
	C1544.145264,1131.594238 1540.029297,1129.539673 1538.539429,1124.806641 
	C1537.453613,1121.356934 1538.027100,1117.385010 1537.954590,1113.258911 
z"/>
<path fill="#BEBCB7" opacity="1.000000" stroke="none" 
	d="
M456.812195,1110.012939 
	C459.323578,1117.065308 461.708954,1123.742188 464.094330,1130.419067 
	C463.743103,1130.782349 463.391876,1131.145508 463.040649,1131.508789 
	C461.754456,1130.425415 459.648163,1129.535889 459.337677,1128.222046 
	C458.448090,1124.458130 456.040039,1124.388672 453.009003,1124.343262 
	C449.876221,1124.296387 447.614410,1124.660034 446.753113,1128.327881 
	C446.450958,1129.614502 444.517151,1130.517944 443.328400,1131.596436 
	C442.888062,1131.249390 442.447754,1130.902344 442.007416,1130.555420 
	C444.738220,1122.869751 447.397339,1115.156860 450.304138,1107.538452 
	C450.615601,1106.722046 452.784271,1105.739990 453.371429,1106.079590 
	C454.713379,1106.855713 455.609161,1108.403320 456.812195,1110.012939 
M450.897949,1121.004272 
	C452.626251,1121.004272 454.354553,1121.004272 456.720795,1121.004272 
	C455.468719,1117.479492 454.490295,1114.724854 453.511841,1111.970337 
	C453.103546,1112.035400 452.695251,1112.100464 452.286987,1112.165527 
	C451.561707,1114.999512 450.836426,1117.833496 450.897949,1121.004272 
z"/>
<path fill="#BEBCB7" opacity="1.000000" stroke="none" 
	d="
M432.733643,1152.999756 
	C430.189697,1153.160522 428.061310,1153.273682 425.555054,1153.406860 
	C425.401031,1156.214844 425.258179,1158.819336 425.021820,1163.128296 
	C423.297394,1161.534058 421.538635,1160.673950 421.511017,1159.761597 
	C421.285889,1152.326660 421.384338,1144.882202 421.384338,1136.930298 
	C424.476288,1136.930298 427.088196,1136.996582 429.695496,1136.915405 
	C434.149902,1136.776855 437.602020,1138.240845 438.858093,1142.845215 
	C440.099518,1147.395996 438.217285,1150.549561 432.733643,1152.999756 
M425.393005,1148.965332 
	C428.272583,1148.769531 431.271332,1148.957886 433.953461,1148.125732 
	C434.685516,1147.898682 435.265839,1143.427734 434.536621,1142.931763 
	C432.097961,1141.272705 429.034637,1140.531860 425.296722,1139.085693 
	C425.296722,1143.175415 425.296722,1145.633545 425.393005,1148.965332 
z"/>
<path fill="#BEBCB7" opacity="1.000000" stroke="none" 
	d="
M501.879578,1120.083862 
	C499.126312,1120.084839 496.840912,1120.084839 494.306976,1120.084839 
	C494.306976,1122.779419 494.306976,1125.033081 494.306976,1127.169800 
	C497.972382,1129.298096 503.173370,1125.445312 507.005005,1130.771729 
	C500.798279,1130.771729 495.737091,1130.771729 490.389221,1130.771729 
	C490.389221,1122.564575 490.389221,1114.521729 490.389221,1106.201538 
	C495.637695,1106.201538 500.705383,1106.201538 505.810822,1106.201538 
	C506.468903,1110.775879 503.056549,1108.902466 501.280579,1109.127441 
	C499.026855,1109.412842 496.709564,1109.196533 494.312073,1109.196533 
	C494.312073,1111.849976 494.312073,1114.104492 494.312073,1116.838867 
	C497.178955,1116.838867 499.802490,1116.718994 502.404419,1116.903809 
	C503.316711,1116.968384 504.175873,1117.781616 505.059265,1118.252930 
	C504.155304,1118.862915 503.251373,1119.472900 501.879578,1120.083862 
z"/>
<path fill="#BEBCB7" opacity="1.000000" stroke="none" 
	d="
M1509.713379,1144.708496 
	C1508.686646,1142.864136 1507.761230,1140.538208 1506.398926,1140.245361 
	C1504.965088,1139.937256 1503.084961,1141.519409 1501.453735,1142.377686 
	C1500.291138,1142.989258 1499.217285,1143.769775 1497.247559,1145.017212 
	C1497.845947,1139.817993 1499.901367,1136.961060 1503.576660,1137.041626 
	C1506.551514,1137.106934 1510.219116,1138.209351 1512.259033,1140.202881 
	C1514.926025,1142.809204 1513.568115,1146.477539 1511.288940,1149.250244 
	C1508.892578,1152.165161 1506.301270,1154.920166 1503.730835,1157.817627 
	C1506.838623,1160.414062 1511.922974,1156.588135 1514.943604,1161.752808 
	C1508.343750,1161.752808 1502.944580,1161.752808 1496.062988,1161.752808 
	C1501.056641,1155.627808 1505.339600,1150.374512 1509.713379,1144.708496 
z"/>
<path fill="#BEBCB7" opacity="1.000000" stroke="none" 
	d="
M1546.313721,1153.286621 
	C1548.420776,1150.908569 1550.819336,1149.030884 1551.938965,1146.571045 
	C1552.652100,1145.004150 1551.468994,1142.574097 1551.136230,1140.531128 
	C1549.088745,1140.980713 1546.952026,1141.203857 1545.026245,1141.962402 
	C1543.816650,1142.439209 1542.923950,1143.720093 1541.889038,1144.640137 
	C1541.297119,1144.108032 1540.705200,1143.575928 1540.113403,1143.043823 
	C1541.867432,1141.085815 1543.361206,1137.909058 1545.438843,1137.465332 
	C1548.306274,1136.852905 1552.304321,1137.427490 1554.501709,1139.161621 
	C1556.089355,1140.414551 1556.724365,1144.997437 1555.683960,1147.008911 
	C1553.613037,1151.012695 1550.095459,1154.268311 1547.114014,1157.908081 
	C1549.858276,1160.753540 1555.305054,1156.065063 1557.587769,1161.763184 
	C1551.741089,1161.763184 1546.481812,1161.763184 1540.887939,1161.763184 
	C1540.193481,1157.469360 1544.334595,1156.215332 1546.313721,1153.286621 
z"/>
<path fill="#BEBCB7" opacity="1.000000" stroke="none" 
	d="
M503.706696,1136.926147 
	C505.395966,1137.541382 506.628540,1138.156372 507.861115,1138.771484 
	C506.633759,1139.245850 505.432770,1140.020386 504.173492,1140.130859 
	C501.703552,1140.347656 499.201172,1140.194702 496.382904,1140.194702 
	C496.382904,1142.687866 496.382904,1144.917847 496.382904,1147.244263 
	C499.357086,1149.491211 504.246246,1145.659668 507.870667,1150.830078 
	C503.353333,1150.830078 499.986755,1150.830078 496.130005,1150.830078 
	C496.130005,1154.826904 496.130005,1158.242432 496.130005,1161.657959 
	C495.646118,1161.935791 495.162231,1162.213623 494.678345,1162.491455 
	C493.822845,1161.491943 492.255890,1160.513306 492.225891,1159.489624 
	C492.011963,1152.194336 492.111786,1144.890015 492.111786,1136.925903 
	C496.046234,1136.925903 499.648132,1136.925903 503.706696,1136.926147 
z"/>
<path fill="#BEBCB7" opacity="1.000000" stroke="none" 
	d="
M472.296570,1105.925781 
	C476.236023,1105.926392 479.722107,1105.807373 483.190369,1106.003418 
	C484.182770,1106.059448 485.123566,1107.028320 486.088013,1107.578613 
	C485.100037,1108.117065 484.165466,1108.899536 483.110199,1109.130493 
	C481.870758,1109.401733 480.526428,1109.193970 478.627808,1109.193970 
	C478.627808,1116.566406 478.627808,1123.583496 478.627808,1130.600464 
	C478.052002,1130.869507 477.476196,1131.138550 476.900421,1131.407593 
	C476.103302,1130.280151 474.660919,1129.177368 474.617065,1128.021240 
	C474.386383,1121.941162 474.509094,1115.847656 474.509094,1109.574951 
	C473.179504,1109.403564 472.358490,1109.415161 471.617065,1109.177979 
	C470.004303,1108.661987 468.432159,1108.019165 466.843445,1107.428101 
	C468.507782,1106.927368 470.172089,1106.426514 472.296570,1105.925781 
z"/>
<path fill="#BEBCB7" opacity="1.000000" stroke="none" 
	d="
M1502.970703,1125.832520 
	C1502.970703,1119.079712 1502.970703,1112.810425 1502.970703,1106.541016 
	C1503.360840,1106.211914 1503.750977,1105.882690 1504.141113,1105.553589 
	C1505.064819,1106.587158 1506.748779,1107.592285 1506.788330,1108.658691 
	C1507.034180,1115.267944 1507.022583,1121.894897 1506.793945,1128.505371 
	C1506.758057,1129.545776 1505.183228,1130.532715 1504.319946,1131.544434 
	C1503.934448,1131.260376 1503.548950,1130.976440 1503.163452,1130.692505 
	C1503.099243,1129.233643 1503.035034,1127.774902 1502.970703,1125.832520 
z"/>
<path fill="#B63F00" opacity="1.000000" stroke="none" 
	d="
M356.977722,1154.958984 
	C356.956390,1154.938599 356.937256,1155.192017 356.937256,1155.192017 
	C356.937256,1155.192017 356.909943,1155.042603 356.977478,1155.029663 
	C357.044983,1155.016724 356.999054,1154.979492 356.977722,1154.958984 
z"/>
<path fill="#181618" opacity="1.000000" stroke="none" 
	d="
M1183.969482,1003.103760 
	C1168.796387,991.017212 1165.108154,966.940002 1176.454102,951.743408 
	C1184.607422,940.822998 1196.804565,939.126709 1209.288696,940.422363 
	C1227.443481,942.306519 1237.708496,954.745850 1238.808228,975.084839 
	C1239.696411,991.515808 1229.957031,1004.646851 1213.414429,1008.493408 
	C1203.118408,1010.887451 1193.299438,1008.903076 1183.969482,1003.103760 
z"/>
<path fill="#1A161A" opacity="1.000000" stroke="none" 
	d="
M1598.898193,1012.988281 
	C1569.749268,1014.546631 1543.668945,1006.389954 1518.728882,991.300720 
	C1511.205322,1001.533752 1503.567261,1011.922424 1495.006592,1023.565918 
	C1495.006592,1004.299500 1495.006592,986.391174 1495.006592,968.565491 
	C1508.633179,986.684875 1528.632080,990.609314 1549.648071,990.809692 
	C1564.751221,990.953796 1579.866455,989.301941 1594.984863,988.655273 
	C1600.275879,988.429016 1605.613647,988.556824 1610.891357,988.992859 
	C1615.446533,989.369080 1618.653198,992.070251 1619.702759,996.609985 
	C1620.757568,1001.172119 1619.027588,1005.299866 1615.069946,1007.284119 
	C1610.121582,1009.765259 1604.608276,1011.119751 1598.898193,1012.988281 
z"/>
<path fill="#181618" opacity="1.000000" stroke="none" 
	d="
M703.853271,984.048096 
	C706.977844,982.850525 709.713196,981.748657 712.505127,980.624023 
	C715.002136,989.268921 710.188416,994.639893 704.759521,999.036194 
	C689.695984,1011.234863 672.028931,1014.727722 653.138428,1012.750244 
	C649.083191,1012.325745 645.427124,1010.315796 644.768311,1005.458496 
	C644.127991,1000.737000 646.644165,997.262573 650.576599,996.043823 
	C658.618164,993.551636 666.922546,991.878052 675.160767,990.057678 
	C684.571350,987.978333 694.027649,986.106018 703.853271,984.048096 
z"/>
<path fill="#1A161A" opacity="1.000000" stroke="none" 
	d="
M653.914978,954.880615 
	C667.837585,944.957886 683.077637,941.376953 699.592224,942.990295 
	C702.345032,943.259216 705.234253,943.969421 707.676941,945.222961 
	C714.464844,948.706421 714.601929,955.357239 707.858398,959.063171 
	C705.038086,960.613037 701.573425,961.581543 698.355164,961.718262 
	C680.592590,962.472900 662.815674,962.889160 644.170410,963.447571 
	C647.548706,960.452637 650.581848,957.763672 653.914978,954.880615 
z"/>
<path fill="#1A161A" opacity="1.000000" stroke="none" 
	d="
M1570.160889,1148.907959 
	C1574.100952,1148.996826 1575.955566,1151.203857 1575.328613,1154.303223 
	C1574.970947,1156.072021 1572.824707,1158.299561 1571.100342,1158.709961 
	C1569.741943,1159.033325 1566.939331,1157.264648 1566.292847,1155.770142 
	C1564.967651,1152.706665 1566.093262,1149.958252 1570.160889,1148.907959 
z"/>
<path fill="#1A161A" opacity="1.000000" stroke="none" 
	d="
M448.363831,1148.922607 
	C447.674469,1146.073242 447.402985,1143.364746 447.110992,1140.451538 
	C448.967285,1140.328369 450.102783,1140.156128 451.230560,1140.196899 
	C454.233917,1140.305054 457.053864,1140.784790 457.082825,1144.722290 
	C457.112244,1148.727661 454.354279,1149.157471 451.279572,1149.116211 
	C450.446869,1149.104980 449.614319,1149.081421 448.363831,1148.922607 
z"/>
<path fill="#1A161A" opacity="1.000000" stroke="none" 
	d="
M433.172668,1117.503174 
	C430.546661,1117.885864 428.280731,1118.037231 425.637024,1118.213867 
	C425.637024,1115.128540 425.637024,1112.454956 425.637024,1108.496216 
	C428.808167,1109.423462 431.859192,1109.814209 434.217865,1111.302368 
	C434.952515,1111.765869 433.813873,1115.198486 433.172668,1117.503174 
z"/>
<path fill="#1A161A" opacity="1.000000" stroke="none" 
	d="
M581.271301,1153.197998 
	C581.134521,1150.651001 580.818909,1148.446045 581.177734,1146.356812 
	C581.905762,1142.118042 585.650085,1139.403564 589.416077,1140.218018 
	C594.211914,1141.255127 595.607971,1144.974243 595.671448,1149.209961 
	C595.734192,1153.393188 594.664917,1157.386719 589.924133,1158.569824 
	C585.716980,1159.619751 582.911987,1157.531738 581.271301,1153.197998 
z"/>
<path fill="#1A161A" opacity="1.000000" stroke="none" 
	d="
M469.271240,1153.197754 
	C469.134460,1150.650757 468.818909,1148.445801 469.177795,1146.356567 
	C469.905945,1142.117676 473.650177,1139.403320 477.416290,1140.218018 
	C482.211884,1141.255371 483.607910,1144.974365 483.671387,1149.210083 
	C483.734070,1153.393433 482.664795,1157.386963 477.924011,1158.569946 
	C473.716949,1159.619751 470.911896,1157.531616 469.271240,1153.197754 
z"/>
<path fill="#1A161A" opacity="1.000000" stroke="none" 
	d="
M608.407837,1140.658325 
	C615.492188,1140.030762 618.306824,1141.437012 617.641357,1145.147949 
	C616.603455,1150.936035 611.979858,1148.651489 608.112427,1149.075317 
	C608.112427,1146.197754 608.112427,1143.593872 608.407837,1140.658325 
z"/>
<path fill="#1A161A" opacity="1.000000" stroke="none" 
	d="
M1532.388916,1149.938232 
	C1531.915161,1154.103516 1532.207275,1159.066406 1526.956177,1158.793335 
	C1521.595337,1158.514648 1521.960449,1153.445679 1521.935913,1149.546021 
	C1521.911255,1145.627808 1521.607544,1140.435425 1526.859497,1140.229858 
	C1532.702271,1140.000977 1531.895874,1145.539429 1532.388916,1149.938232 
z"/>
<path fill="#1A161A" opacity="1.000000" stroke="none" 
	d="
M450.504547,1120.835938 
	C450.836426,1117.833496 451.561707,1114.999512 452.286987,1112.165527 
	C452.695251,1112.100464 453.103546,1112.035400 453.511841,1111.970337 
	C454.490295,1114.724854 455.468719,1117.479492 456.720795,1121.004272 
	C454.354553,1121.004272 452.626251,1121.004272 450.504547,1120.835938 
z"/>
<path fill="#1A161A" opacity="1.000000" stroke="none" 
	d="
M425.344849,1148.528564 
	C425.296722,1145.633545 425.296722,1143.175415 425.296722,1139.085693 
	C429.034637,1140.531860 432.097961,1141.272705 434.536621,1142.931763 
	C435.265839,1143.427734 434.685516,1147.898682 433.953461,1148.125732 
	C431.271332,1148.957886 428.272583,1148.769531 425.344849,1148.528564 
z"/>
</svg>